<?xml version="1.0" encoding="UTF-8" standalone="no"?>
<!DOCTYPE svg PUBLIC "-//W3C//DTD SVG 1.1//EN" "http://www.w3.org/Graphics/SVG/1.1/DTD/svg11.dtd">
<svg width="100%" height="100%" viewBox="0 0 1622 672" version="1.1" xmlns="http://www.w3.org/2000/svg" xmlns:xlink="http://www.w3.org/1999/xlink" xml:space="preserve" xmlns:serif="http://www.serif.com/" style="fill-rule:evenodd;clip-rule:evenodd;stroke-linejoin:round;stroke-miterlimit:2;">
    <style>
        /* Standard-Farbe (Heller Modus): Logo wird dunkel angezeigt */
        .logo-color {
            fill: #ffffff !important; /* Ein schönes Dunkelgrau/Schwarz */
        }

        /* Dunkelmodus: Wenn das System auf "dark" steht, wird das Logo reinweiss */
        @media (prefers-color-scheme: dark) {
            .logo-color {
                fill: #000000 !important;
            }
        }
    </style>
    <g transform="matrix(1,0,0,1,-230.787083,-706.01875)">
        <g id="Page-1" serif:id="Page 1" transform="matrix(4.166667,0,0,4.166667,0,0)">
            <rect x="0" y="0" width="500" height="500" style="fill:none;"/>
            <g id="Ebene-1" serif:id="Ebene 1">
                <g transform="matrix(1,0,0,1,126.5278,244.3925)">
                    <path class="logo-color" d="M0,-74.948C2.182,-70.385 4.371,-65.826 6.542,-61.259C8.169,-57.836 9.747,-54.391 11.391,-50.977C13.309,-46.995 15.284,-43.041 17.218,-39.067C18.645,-36.136 20.031,-33.186 21.463,-30.258C22.941,-27.238 24.494,-24.254 25.937,-21.217C27.596,-17.728 29.128,-14.178 30.793,-10.692C32.196,-7.751 33.721,-4.868 35.165,-1.947C35.396,-1.479 35.488,-0.942 35.708,-0.234L33.715,-0.234C18.416,-0.234 3.117,-0.237 -12.182,-0.224C-12.819,-0.223 -13.454,-0.035 -14.092,-0.011C-14.405,0 -14.85,-0.074 -15.002,-0.281C-15.133,-0.46 -15.008,-0.916 -14.873,-1.189C-12.685,-5.6 -10.478,-10.001 -8.227,-14.502L13.104,-14.502C8.571,-23.856 4.099,-33.085 -0.403,-42.376C-3.122,-36.813 -5.821,-31.369 -8.451,-25.893C-11,-20.585 -13.459,-15.234 -15.995,-9.919C-17.463,-6.84 -18.981,-3.784 -20.546,-0.753C-20.702,-0.452 -21.341,-0.26 -21.757,-0.256C-26.012,-0.22 -30.268,-0.234 -34.523,-0.234L-36.751,-0.234C-36.189,-1.495 -35.725,-2.633 -35.184,-3.734C-32.402,-9.403 -29.595,-15.059 -26.808,-20.725C-24.284,-25.857 -21.761,-30.989 -19.266,-36.134C-16.999,-40.81 -14.761,-45.499 -12.528,-50.19C-9.796,-55.928 -7.098,-61.681 -4.355,-67.413C-3.144,-69.943 -1.859,-72.438 -0.608,-74.948L0,-74.948Z" style="fill-rule:nonzero;"/>
                </g>
                <g transform="matrix(1,0,0,1,274.5818,244.1605)">
                    <path class="logo-color" d="M0,-74.716L0,-14.176C1.908,-14.11 3.779,-14.039 5.651,-13.985C6.474,-13.961 7.297,-13.971 8.12,-13.971C11.73,-13.969 15.339,-13.97 18.948,-13.97C19.15,-13.97 19.355,-13.955 19.555,-13.976C22.188,-14.242 22.189,-14.244 22.191,-11.653C22.193,-8.263 22.194,-4.872 22.188,-1.482C22.187,-0.989 22.144,-0.497 22.121,0L-14.062,0L-14.062,-60.712L-36.177,-60.712L-36.177,-74.716L0,-74.716Z" style="fill-rule:nonzero;"/>
                </g>
                <g transform="matrix(1,0,0,1,211.3472,212.8895)">
                    <path class="logo-color" d="M0,-43.445C2.052,-42.73 4.211,-42.225 6.137,-41.259C11.92,-38.358 15.926,-33.789 17.693,-27.54C19.932,-19.618 17.926,-12.628 12.676,-6.38C10.06,-3.267 6.671,-1.561 2.953,-0.348C1.981,-0.031 0.877,-0.047 -0.168,-0.037C-3.966,0 -7.764,-0.025 -11.563,-0.008C-12.375,-0.005 -12.915,-0.147 -13.319,-1.04C-15.126,-5.043 -17.049,-8.993 -18.998,-13.105C-18.383,-13.105 -17.77,-13.107 -17.157,-13.105C-12.905,-13.095 -8.637,-12.843 -4.406,-13.133C0.913,-13.498 3.89,-16.122 4.208,-21.269C4.443,-25.09 1.293,-29.419 -3.988,-29.376C-10.415,-29.324 -16.842,-29.434 -23.269,-29.47C-23.463,-29.471 -23.657,-29.429 -23.947,-29.397L-23.947,-9.224L-38.306,-9.224L-38.306,-43.445L0,-43.445Z" style="fill-rule:nonzero;"/>
                </g>
                <g transform="matrix(1,0,0,1,344.2006,231.3565)">
                    <path class="logo-color" d="M0,-61.912C1.983,-61.407 3.973,-60.929 5.947,-60.389C9.247,-59.485 12.194,-57.866 15.139,-56.134C18.877,-53.935 21.886,-50.944 24.512,-47.666C26.561,-45.108 28.1,-42.06 29.441,-39.042C30.631,-36.363 31.239,-33.426 32.092,-30.599C32.178,-30.316 32.224,-30.007 32.217,-29.711C32.101,-24.811 32.771,-19.849 31.291,-15.048C30.142,-11.323 28.745,-7.685 26.514,-4.442C25.507,-2.977 24.413,-1.573 23.253,0C21.757,-1.439 20.449,-2.691 19.148,-3.95C17.257,-5.78 15.356,-7.6 13.506,-9.469C13.292,-9.685 13.186,-10.328 13.344,-10.543C16.744,-15.159 18.632,-20.306 18.191,-26.038C17.793,-31.202 15.865,-35.78 12.406,-39.826C9.254,-43.511 5.335,-45.818 0.873,-47.11C-2.237,-48.01 -5.497,-48.303 -8.874,-47.549C-12.265,-46.792 -15.333,-45.554 -18.203,-43.693C-18.616,-43.425 -18.986,-43.089 -19.703,-42.53C-21.385,-44.323 -23.095,-46.208 -24.876,-48.023C-26.196,-49.368 -27.622,-50.609 -28.972,-51.926C-29.495,-52.437 -29.615,-52.952 -28.924,-53.536C-25.139,-56.73 -20.867,-59.01 -16.118,-60.379C-14.109,-60.959 -12.062,-61.405 -10.032,-61.912L0,-61.912Z" style="fill-rule:nonzero;"/>
                </g>
                <g transform="matrix(1,0,0,1,55.3889,282.522)">
                    <path class="logo-color" d="M0,-8.901C0.678,-10.655 1.151,-12.528 2.083,-14.135C3.342,-16.303 4.764,-18.44 6.455,-20.279C9.375,-23.455 13.162,-25.381 17.342,-26.299C19.231,-26.713 21.265,-26.505 23.234,-26.508C32.858,-26.524 42.483,-26.515 52.108,-26.515L53.886,-26.515C51.555,-21.849 49.085,-17.371 47.152,-12.547L30.767,-12.547C27.981,-12.547 25.195,-12.559 22.408,-12.545C18.291,-12.524 15.987,-10.428 14.65,-6.942C13.123,-2.963 15.498,2.913 21.268,3.416C22.296,3.506 23.325,3.578 24.407,3.662L24.407,17.685C22.871,17.685 21.333,17.812 19.824,17.659C16.774,17.348 13.902,16.48 11.186,14.951C8.306,13.33 6.005,11.155 4.016,8.578C2.378,6.456 1.229,4.107 0.586,1.503C0.475,1.051 0.199,0.64 0,0.211L0,-8.901Z" style="fill-rule:nonzero;"/>
                </g>
                <g transform="matrix(1,0,0,1,108.2871,204.3725)">
                    <path class="logo-color" d="M0,-34.928C-0.586,-33.583 -1.14,-32.222 -1.766,-30.896C-3.191,-27.877 -4.627,-24.862 -6.124,-21.877C-6.342,-21.442 -6.916,-20.888 -7.326,-20.887C-14.812,-20.866 -22.297,-20.924 -29.782,-20.957C-32.415,-20.968 -35.048,-20.944 -37.681,-20.966C-38.466,-20.973 -38.926,-20.778 -38.923,-19.873C-38.9,-13.55 -38.902,-7.227 -38.889,-0.904C-38.889,-0.767 -38.804,-0.631 -38.69,-0.285C-41.754,-0.285 -44.755,-0.318 -47.755,-0.273C-49.47,-0.247 -51.184,-0.095 -52.898,0L-52.898,-34.928L0,-34.928Z" style="fill-rule:nonzero;"/>
                </g>
                <g transform="matrix(1,0,0,1,55.3889,244.381)">
                    <path class="logo-color" d="M0,-35.149C4.204,-35.148 8.408,-35.137 12.612,-35.155C13.664,-35.159 14.538,-35.232 14.033,-33.648C13.77,-32.821 13.983,-31.842 13.983,-30.931C13.983,-21.216 13.98,-11.5 13.986,-1.785C13.987,-0.696 14.21,0.05 12.377,-0.12C8.711,-0.46 4.991,-0.231 1.294,-0.208C0.862,-0.205 0.431,-0.019 0,0.083L0,-35.149Z" style="fill-rule:nonzero;"/>
                </g>
                <g transform="matrix(1,0,0,1,297.0787,183.4165)">
                    <path class="logo-color" d="M0,-13.972C-0.108,-13.64 -0.308,-13.309 -0.31,-12.977C-0.331,-8.702 -0.324,-4.427 -0.324,0L-17.329,0L-17.329,-13.972L0,-13.972Z" style="fill-rule:nonzero;"/>
                </g>
                <g transform="matrix(1,0,0,1,444.4615,255.7373)">
                    <path class="logo-color" d="M0,74.677C-5.311,74.677 -10.271,74.73 -15.226,74.607C-15.812,74.592 -16.582,73.716 -16.913,73.061C-18.459,69.994 -19.871,66.86 -21.351,63.76C-22.602,61.14 -23.866,58.527 -25.148,55.923C-26.904,52.357 -28.715,48.818 -30.442,45.239C-31.869,42.283 -33.197,39.278 -34.592,36.306C-35.523,34.322 -36.496,32.356 -37.471,30.338C-32.222,30.338 -27.159,30.554 -22.124,30.276C-17.252,30.006 -14.758,27.196 -13.98,22.425C-13.528,19.65 -16.625,15.537 -19.479,14.838C-20.769,14.522 -22.113,14.276 -23.435,14.264C-29.612,14.204 -35.79,14.237 -42.134,14.237L-42.134,74.582L-56.785,74.582L-56.785,2.146C-56.785,-0.053 -56.785,-0.038 -54.592,-0.037C-44.256,-0.031 -33.92,-0.025 -23.585,-0.038C-18.323,-0.044 -13.304,0.899 -9.026,4.138C-6.601,5.974 -4.608,8.214 -2.876,10.83C0.298,15.625 0.4,20.87 -0.038,26.144C-0.318,29.513 -1.83,32.668 -3.979,35.395C-7.721,40.141 -10.513,41.723 -15.03,43.518C-10.055,53.833 -5.08,64.145 0,74.677" style="fill-rule:nonzero;"/>
                </g>
                <g transform="matrix(1,0,0,1,256.111,265.0572)">
                    <path class="logo-color" d="M0,24.967L0,-9.06C11.291,-9.06 22.516,-8.846 33.728,-9.142C40.26,-9.314 45.734,-7.118 50.191,-2.788C53.323,0.254 55.412,4.217 56.193,8.724C56.7,11.653 56.734,14.479 56.039,17.4C54.864,22.337 52.537,26.624 48.758,29.915C45.862,32.436 42.391,34.099 38.355,34.078C34.759,34.06 31.162,34.066 27.566,34.083C26.931,34.086 26.296,34.193 25.346,34.281C23.275,30.034 21.128,25.632 18.879,21.018C23.928,21.018 28.68,21.026 33.433,21.016C37.508,21.007 40.34,19.237 41.867,15.43C43.239,12.007 41.074,7.01 37.444,5.616C36.326,5.187 35.063,4.959 33.864,4.947C27.285,4.884 20.706,4.917 13.909,4.917L13.909,6.593C13.909,12.261 13.901,17.928 13.916,23.595C13.919,24.649 13.987,25.164 12.415,25.059C8.349,24.786 4.252,24.967 0,24.967" style="fill-rule:nonzero;"/>
                </g>
                <g transform="matrix(1,0,0,1,151.1511,255.8992)">
                    <path class="logo-color" d="M0,74.441L-14.096,74.441L-14.096,14.123L-36.335,14.123C-34.004,9.337 -31.779,4.768 -29.509,0.108C-27.21,0.108 -24.847,0.119 -22.484,0.106C-15.198,0.063 -7.911,0 -0.625,0.004C-0.328,0.004 0.21,0.597 0.22,0.927C0.253,1.968 0.012,3.015 0.011,4.061C-0.004,25.569 0,47.078 0,68.587L0,74.441Z" style="fill-rule:nonzero;"/>
                </g>
                <g transform="matrix(1,0,0,1,310.8793,244.213)">
                    <path class="logo-color" d="M0,-62.082C2.77,-59.305 5.434,-56.632 8.101,-53.962C8.712,-53.35 9.754,-52.8 9.836,-52.128C9.923,-51.415 9.155,-50.557 8.673,-49.821C5.765,-45.381 4.597,-40.472 5.09,-35.253C5.322,-32.795 6.113,-30.463 7.22,-28.111C8.294,-25.828 9.44,-23.717 11.061,-21.853C13.3,-19.277 16.047,-17.404 19.209,-16.052C23.083,-14.395 27.133,-13.92 31.213,-14.382C35.082,-14.821 38.688,-16.287 41.857,-18.651C42.426,-19.076 42.891,-19.296 43.538,-18.663C46.672,-15.598 49.851,-12.579 53.392,-9.181C50.343,-7.288 47.702,-5.723 45.142,-4.036C42.909,-2.564 40.436,-1.844 37.88,-1.216C34.978,-0.504 32.051,-0.122 29.077,-0.061C26.141,0 23.196,-0.04 20.362,-0.909C17.424,-1.81 14.389,-2.556 11.647,-3.886C8.948,-5.195 6.377,-6.93 4.073,-8.863C-4.12,-15.741 -8.562,-24.641 -9.199,-35.295C-9.801,-45.349 -6.664,-54.229 0,-62.082" style="fill-rule:nonzero;"/>
                </g>
                <g transform="matrix(1,0,0,1,173.0434,244.4681)">
                    <path class="logo-color" d="M0,-35.536C4.546,-35.536 8.895,-35.526 13.244,-35.542C14.461,-35.547 14.282,-34.701 14.283,-33.957C14.287,-28.137 14.285,-22.317 14.285,-16.497L14.285,-14.581C14.86,-14.581 15.389,-14.577 15.919,-14.582C22.091,-14.64 28.263,-14.696 34.435,-14.759C38.258,-14.798 41.11,-16.607 42.061,-20.118C42.483,-21.676 42.053,-23.473 41.951,-25.159C41.917,-25.724 41.699,-26.279 41.659,-26.445C44.766,-27.938 47.652,-29.245 50.453,-30.716C51.384,-31.205 52.05,-32.174 52.919,-32.812C53.639,-33.34 54.264,-33.356 54.749,-32.309C56.183,-29.217 57.068,-25.897 56.998,-22.601C56.908,-18.407 55.969,-14.325 53.477,-10.636C51.479,-7.68 49.082,-5.309 46.132,-3.442C43.687,-1.895 41.005,-0.925 38.103,-0.611C32.35,0.011 26.58,-0.399 20.819,-0.327C14.69,-0.251 8.56,-0.313 2.43,-0.306C1.711,-0.305 0.483,-0.013 0.368,-0.262C0.016,-1.022 0.013,-1.98 0.012,-2.862C-0.007,-13.135 0,-23.409 0,-33.683L0,-35.536Z" style="fill-rule:nonzero;"/>
                </g>
                <g transform="matrix(1,0,0,1,255.8352,295.7211)">
                    <path class="logo-color" d="M0,34.617L0,-0.207L14.296,-0.207L14.296,20.753C16.646,20.753 19.052,20.755 21.457,20.753C25.712,20.749 29.972,20.623 34.222,20.767C39.665,20.952 44.187,15.103 41.913,9.708C41.761,9.347 41.662,8.964 41.537,8.584C43.706,7.744 45.918,7.117 47.898,6.056C49.954,4.955 51.786,3.434 53.951,1.934C54.441,2.792 55.233,3.731 55.55,4.809C58.02,13.196 57.118,20.98 50.939,27.601C49.279,29.38 47.479,31.254 45.358,32.319C42.906,33.55 40.041,34.531 37.335,34.584C25.333,34.824 13.323,34.693 1.315,34.691C0.829,34.69 0.343,34.637 0,34.617" style="fill-rule:nonzero;"/>
                </g>
                <g transform="matrix(1,0,0,1,55.4618,300.0946)">
                    <path class="logo-color" d="M0,16.353L10.112,16.353C17.154,16.353 24.198,16.303 31.24,16.374C34.785,16.41 37.207,14.629 38.681,11.708C40.042,9.013 39.706,6.209 37.877,3.689C35.995,1.096 33.387,-0.003 30.283,0.352C29.292,0.465 29.119,0.264 29.118,-0.531C29.113,-4.682 29.089,-8.833 29.165,-12.982C29.171,-13.334 29.901,-14.002 30.236,-13.966C33.883,-13.586 37.682,-13.623 40.981,-11.83C44.806,-9.752 48.139,-7.092 50.427,-3.18C52.724,0.745 53.979,4.863 53.706,9.358C53.369,14.906 51.329,19.744 47.389,23.806C44.774,26.502 41.628,28.235 38.21,29.524C36.844,30.039 35.296,30.275 33.829,30.287C25.115,30.355 16.4,30.306 7.685,30.341C6.674,30.345 6.342,29.995 5.923,29.055C4.348,25.529 2.549,22.103 0.859,18.628C0.545,17.984 0.347,17.283 0,16.353" style="fill-rule:nonzero;"/>
                </g>
                <g transform="matrix(1,0,0,1,323.4507,290.5448)">
                    <path class="logo-color" d="M0,-34.593L53.219,-34.593C50.923,-29.826 48.763,-25.341 46.499,-20.641L14.217,-20.641L14.217,0L0,0L0,-34.593Z" style="fill-rule:nonzero;"/>
                </g>
                <g transform="matrix(1,0,0,1,376.6017,309.8378)">
                    <path class="logo-color" d="M0,6.536C-1.221,9.1 -2.275,11.359 -3.369,13.597C-4.309,15.519 -5.429,17.365 -6.209,19.347C-6.643,20.447 -7.229,20.596 -8.219,20.592C-15.109,20.564 -21.999,20.578 -28.889,20.578C-36.386,20.578 -43.884,20.577 -51.382,20.577L-53.156,20.577L-53.156,-13.922C-52.796,-13.958 -52.366,-14.036 -51.936,-14.038C-48.036,-14.047 -44.135,-14.027 -40.234,-14.053C-39.137,-14.06 -38.727,-13.832 -38.963,-12.553C-39.225,-11.132 -39.085,-9.633 -39.088,-8.168C-39.097,-3.314 -39.091,1.539 -39.091,6.536L0,6.536Z" style="fill-rule:nonzero;"/>
                </g>
                <g transform="matrix(1,0,0,1,198.577,295.8312)">
                    <path class="logo-color" d="M0,-16.14C0,-8.855 -0.042,-1.569 0.023,5.716C0.045,8.157 0.911,10.393 2.229,12.468C2.654,13.136 3.022,13.852 2.158,14.706C-0.751,17.583 -3.554,20.567 -6.396,23.511C-6.91,24.044 -7.181,24.073 -7.771,23.397C-10.189,20.629 -11.745,17.357 -12.931,13.994C-13.806,11.514 -14.187,8.751 -14.231,6.104C-14.451,-7.129 -14.49,-20.365 -14.587,-33.601C-14.601,-35.438 -14.628,-37.276 -14.544,-39.109C-14.53,-39.399 -13.961,-39.896 -13.637,-39.905C-9.569,-40.018 -5.496,-39.99 -1.43,-40.157C-0.085,-40.213 0.017,-39.651 0.013,-38.603C-0.012,-31.115 0,-23.628 0,-16.14" style="fill-rule:nonzero;"/>
                </g>
                <g transform="matrix(1,0,0,1,245.0912,295.7357)">
                    <path class="logo-color" d="M0,-16.033C0,-8.804 0.049,-1.575 -0.017,5.654C-0.061,10.508 -1.425,15.039 -3.855,19.236C-4.632,20.579 -5.529,21.854 -6.375,23.156C-6.865,23.91 -7.347,24.028 -8.055,23.315C-10.931,20.42 -13.82,17.537 -16.768,14.715C-18.11,13.431 -16.616,12.475 -16.239,11.812C-14.93,9.51 -14.271,7.133 -14.269,4.541C-14.257,-9.622 -14.264,-23.785 -14.263,-37.947C-14.263,-40.061 -14.262,-40.039 -12.083,-40.028C-8.488,-40.008 -4.893,-40.01 -1.299,-40.025C-0.43,-40.029 0.074,-39.926 0.066,-38.792C0.009,-31.206 0.036,-23.619 0.036,-16.033L0,-16.033" style="fill-rule:nonzero;"/>
                </g>
                <g transform="matrix(1,0,0,1,234.3254,320.2308)">
                    <path class="logo-color" d="M0,3.672C-2.533,5.133 -4.997,6.736 -7.615,8.025C-12.835,10.596 -18.521,10.551 -24.083,10.064C-27.085,9.8 -30.055,8.499 -32.899,7.328C-34.865,6.519 -36.573,5.099 -38.432,4.012C-39.379,3.459 -39.276,2.922 -38.61,2.264C-36.587,0.265 -34.564,-1.733 -32.545,-3.735C-31.755,-4.519 -30.908,-5.258 -30.214,-6.12C-29.611,-6.868 -29.045,-6.924 -28.289,-6.456C-25.352,-4.638 -22.172,-3.518 -18.699,-3.822C-15.97,-4.061 -13.385,-4.915 -11.068,-6.512C-10.715,-6.754 -9.717,-6.528 -9.327,-6.176C-6.098,-3.26 -2.942,-0.263 0.235,2.709C0.157,3.03 0.078,3.351 0,3.672" style="fill-rule:nonzero;"/>
                </g>
                <g transform="matrix(1,0,0,1,238.4061,230.0626)">
                    <path class="logo-color" d="M0,14.096L0,3.732C0,3.074 0.014,2.416 -0.003,1.759C-0.052,-0.176 -0.056,-0.176 1.985,-0.176C6.442,-0.176 10.901,-0.125 15.357,-0.206C16.736,-0.231 17.075,0.245 17.048,1.543C16.971,5.134 16.996,8.729 17.034,12.321C17.048,13.648 17.144,14.327 15.173,14.202C10.148,13.884 5.088,14.096 0,14.096" style="fill-rule:nonzero;"/>
                </g>
                <g transform="matrix(1,0,0,1,156.376,255.8155)">
                    <path class="logo-color" d="M0,14.075L0,0.191C4.161,0.191 8.27,0.207 12.379,0.182C13.625,0.175 14.871,0 16.114,0.033C16.408,0.041 16.934,0.572 16.938,0.869C16.993,4.606 16.962,8.344 16.976,12.082C16.979,12.719 17.089,13.356 17.158,14.075L0,14.075Z" style="fill-rule:nonzero;"/>
                </g>
                <g transform="matrix(-0.593992,-0.804471,-0.804471,0.593992,340.937282,289.784975)">
                    <path class="logo-color" d="M-9.636,-19.092C-12.099,-14.421 -14.498,-9.874 -17.006,-5.119L-9.636,4.863L1.811,-3.589L-9.636,-19.092Z" style="fill-rule:nonzero;"/>
                </g>
                <g transform="matrix(1,0,0,1,74.5657,214.1862)">
                    <path class="logo-color" d="M0,-14.353L19.221,-14.353C17.029,-9.827 14.914,-5.399 12.716,-1.012C12.486,-0.553 11.767,-0.067 11.266,-0.058C7.978,0 4.687,-0.121 1.398,-0.069C0.205,-0.051 -0.034,-0.501 -0.021,-1.58C0.03,-5.809 0,-10.039 0,-14.353" style="fill-rule:nonzero;"/>
                </g>
            </g>
        </g>
    </g>
</svg>
