<svg xmlns="http://www.w3.org/2000/svg" viewBox="0 0 120 69">
  <g fill="#004494">
    <path d="M0 25.31h14.5v4.4H5v3.09h8.57V37H5v6.48H0zM17.58 25.31h5v18.13h-5zM25.19 40.74L28 37.41a9.4 9.4 0 005.87 2.17c1.38 0 2.1-.47 2.1-1.24v-.05c0-.78-.6-1.17-3.08-1.77-3.85-.87-6.83-2-6.83-5.66v-.06c0-3.36 2.67-5.8 7-5.8a11.39 11.39 0 017.45 2.41L38 31a8.89 8.89 0 00-5.07-1.79c-1.22 0-1.82.49-1.82 1.17v.05c0 .83.63 1.19 3.16 1.76 4.14.9 6.73 2.25 6.73 5.64v.05c0 3.7-2.92 5.9-7.32 5.9a12.63 12.63 0 01-8.49-3.04zM43.49 34.43A9.29 9.29 0 0152.64 25H53a9 9 0 017.69 3.75l-3.78 2.93a5 5 0 00-4-2.12c-2.53 0-4.32 2.17-4.32 4.81v.06c0 2.71 1.79 4.84 4.32 4.84A5 5 0 0057.05 37l3.78 2.69a9.52 9.52 0 01-17.34-5.28zM63.66 25.31h5v6.79h6.44v-6.79h5v18.13h-5v-6.89h-6.42v6.89h-5zM84 25.31h14.58v4.25H89v2.77h8.7v4H89v2.87h9.73v4.28H84zM101.94 25.31h8.57c2.77 0 4.69.73 5.9 2a5.61 5.61 0 011.6 4.22v.05a5.75 5.75 0 01-3.72 5.59l4.32 6.32h-5.78L109.19 38H107v5.49h-5zm8.37 8.7c1.68 0 2.69-.83 2.69-2.15v-.05c0-1.45-1.06-2.17-2.72-2.17H107V34z"></path>
  </g>
  <path fill="#d9000d" d="M95.11 18H68.79L80.24 0h26.32zM64.32 68.9H38l11.45-18h26.32z"></path>
  <g fill="#004494">
    <path d="M51.43 0L40 18h2.8L54.21 0zM56.5 0L45.06 18h2.86L59.36 0zM77.75 0h-16.1L50.21 18H66.3z"></path>
  </g>
  <g fill="#004494">
    <path d="M25.74 50.9l-11.44 18h2.92l11.44-18zM20.72 50.9l-11.45 18H12l11.44-18zM47 50.9H30.94l-11.44 18h16.09z"></path>
  </g>
</svg>