<svg width="200" height="179" viewBox="0 0 200 179" fill="none" xmlns="http://www.w3.org/2000/svg">
<g clip-path="url(#clip0_4_499)">
<path d="M169.888 57.8559L114.561 61.7249C114.1 61.0205 113.484 59.1766 112.709 58.8747C109.967 52.7594 111.841 45.1448 114.445 39.9904C115.104 38.6848 120.643 26.8188 124.301 22.482C124.1 22.2405 127.39 22.2908 127.39 22.2908L131.815 21.1714C134.066 21.0179 139.165 20.54 139.933 20.54L141.382 16.017C138.499 14.0624 136.195 12.7014 134.094 10.8827C133.699 10.5406 129.241 5.93456 129.241 5.93456L131.38 4.59125L131.505 0.0305176H131.02L129.433 1.81909L125.033 4.59879C123.73 4.66923 123.139 4.89815 121.778 4.90569L119.967 3.72841L115.132 1.98763L114.757 2.52848L116.82 5.93456L119.403 7.27788C118.905 7.44139 118.404 7.60993 117.931 7.75332C117.901 7.81621 114.857 11.0965 110.294 11.0965C104.767 11.0965 97.3189 12.0097 91.6437 13.28C76.9176 13.6247 60.2846 11.094 57.8747 12.2059C57.7288 12.2738 52.1946 14.1253 50.5871 22.2153C50.318 23.5763 49.996 24.9347 49.9079 26.3409C49.5079 32.4763 48.1093 40.6218 46.1673 46.3799L45.0755 46.7019L42.7008 52.7544L45.5006 51.3884L47.8955 48.4729L47.4653 46.2793H47.1986C48.7357 42.2644 52.8059 32.6449 52.8059 29.1583C53.392 30.9444 54.9542 35.1102 54.9542 37.8043C55.2208 41.867 53.8045 46.5585 52.7681 48.9659C53.3542 50.8702 53.2234 52.4299 54.3177 55.4033C54.9542 57.1315 56.5415 62.394 57.2182 65.7347L-0.124268 69.7445L4.66286 138.218L174.675 126.33L169.888 57.8559ZM100.156 62.9148L68.0452 65.1612C63.5448 54.6109 68.8678 48.2666 73.5216 43.9247C72.2361 43.5172 70.9255 43.0317 69.5998 42.4783C68.664 43.5499 67.5748 44.5637 66.4755 45.59C64.5158 47.4088 62.521 49.5596 61.2632 51.9871C61.3865 52.7066 61.55 55.0159 61.8368 55.9089C62.365 57.5189 63.7712 62.0896 64.536 65.4052L61.6808 65.6039C61.4016 65.4429 61.0947 65.2945 60.7551 65.1612C57.7137 58.3842 58.6495 52.2538 60.9311 48.8577C63.2203 45.4592 66.8453 43.0342 69.1722 40.1539C70.8853 40.8934 72.5481 41.5072 74.1807 42.0028C82.2078 44.448 89.0074 44.1738 98.0333 43.1952C98.0509 43.5122 98.0786 43.8316 98.1062 44.1486C98.3427 46.6365 98.876 49.0565 99.6911 51.3129C100.056 53.2147 100.335 60.0495 100.154 62.9122L100.156 62.9148ZM108.601 62.3236L105.19 62.5626C104.793 62.1098 104.234 59.969 103.51 59.6621C102.106 55.1391 104.395 50.3721 104.783 46.2416C105.193 41.8745 106.755 42.2166 107.243 42.0053L109.927 40.9639C106.184 46.7271 107.457 42.5411 106.692 48.7521C106.881 49.3055 107.333 50.0828 107.613 50.6363C108.241 52.5481 108.672 59.5087 108.601 62.3211V62.3236Z" fill="#C8EB24"/>
<path d="M149.53 93.6047L149.311 93.6198C148.916 87.9698 148.528 82.3174 148.121 76.6674C147.982 74.7555 147.434 74.2625 145.557 74.2952C145.147 74.3027 144.737 74.3279 144.332 74.3858C142.516 74.6449 140.7 74.9241 138.886 75.1882C137.953 75.3241 137.382 75.9253 137.226 76.7705C137.017 77.895 136.866 79.0572 136.906 80.1942C136.982 82.3752 137.211 84.5512 137.374 86.7297C137.938 94.2185 138.486 101.707 139.08 109.194C139.165 110.273 139.412 111.355 139.724 112.394C139.827 112.743 140.358 113.206 140.695 113.206C143.344 113.211 146 113.176 148.644 113.027C150.181 112.942 150.438 112.625 150.455 111.156C150.478 109.314 150.463 107.471 150.355 105.634C150.116 101.622 149.806 97.6145 149.527 93.6072L149.53 93.6047ZM119.911 85.1625C121.088 85.2782 121.632 86.0102 121.921 87.2227C122.656 90.2917 121.332 91.5998 119.079 92.1054C117.708 92.4123 116.246 92.2966 114.825 92.362C114.691 92.3696 114.553 92.3318 114.422 92.2866C112.749 91.7206 111.668 86.9888 112.946 85.7033C113.207 85.4417 113.655 85.3235 114.035 85.2706C114.772 85.165 115.522 85.1499 116.269 85.0996L116.276 84.8883C117.489 84.9763 118.701 85.0417 119.911 85.1625ZM102.35 108.381C102.481 110.245 102.579 112.109 102.75 113.968C102.908 115.676 103.407 116.187 104.944 116.112C107.401 115.993 109.859 115.84 112.307 115.591C114.223 115.397 114.815 114.655 114.782 112.653C114.757 111.146 114.608 109.641 114.535 108.137C114.457 106.487 114.349 104.837 114.359 103.187C114.367 101.969 115.137 101.292 116.238 101.594C116.84 101.758 117.489 102.216 117.858 102.741C118.462 103.599 118.847 104.628 119.343 105.574C120.827 108.406 122.324 111.231 123.805 114.064C124.21 114.839 124.776 115.196 125.642 115.135C128.565 114.929 131.495 114.786 134.419 114.567C135.246 114.504 135.628 113.92 135.457 113.068C135.362 112.59 135.133 112.124 134.896 111.694C132.796 107.903 130.698 104.11 128.557 100.344C127.606 98.6686 127.503 98.5881 129.018 97.3907C130.444 96.2637 131.342 94.7216 131.734 92.9582C132.778 88.2667 132.459 83.6833 130.036 79.4496C128.731 77.1655 126.769 75.8876 124.185 75.553C120.809 75.1153 117.509 75.6259 114.191 76.0511C112.5 76.2674 110.792 76.5542 109.099 76.5039C106.606 76.4284 104.201 76.7806 101.824 77.4673C100.32 77.9025 99.8369 78.6069 99.9652 80.2647C100.687 89.6427 101.427 99.0208 102.161 108.399C102.224 108.394 102.285 108.389 102.347 108.386M88.3685 94.221C85.868 94.5682 83.3675 94.9128 80.867 95.2675C79.8885 95.4059 79.4482 96.0423 79.4583 96.9781C79.4734 98.2082 79.5036 99.4408 79.6067 100.666C79.7753 102.688 80.1652 102.998 82.1701 102.89C83.531 102.817 84.8919 102.693 86.2529 102.693C87.6138 102.693 88.0792 103.428 87.4025 104.542C86.8591 105.438 86.0667 106.303 85.1787 106.847C80.1929 109.901 72.1003 108.316 69.791 99.9314C68.6237 95.6876 71.1896 91.3835 75.2145 89.2729C77.4735 88.0881 79.9161 87.424 82.4594 87.2051C83.3474 87.1296 83.8907 86.8026 83.9234 85.8693C83.9788 84.2317 84.1473 82.584 84.0316 80.9564C83.8606 78.5239 83.2292 77.9478 80.7865 78.0308C77.2446 78.1491 73.6574 78.1164 70.367 79.7993C69.2803 80.3552 68.0049 80.6294 67.0616 81.3539C64.4479 83.3563 62.2216 85.7134 60.667 88.7044C57.2081 95.3631 56.9289 102.039 60.4079 108.723C62.7801 113.284 66.3597 116.466 71.4689 117.782C75.5768 118.838 79.735 118.994 83.8757 118.325C87.5157 117.734 90.8111 116.202 93.2512 113.294C95.3064 110.844 96.6371 107.999 97.3138 104.88C97.8371 102.465 97.9427 100.007 97.6182 97.5441C97.2233 94.538 96.6548 94.0047 93.709 94.0877C91.9355 94.138 90.1646 94.3217 88.3911 94.4449C88.3836 94.372 88.3735 94.2965 88.3659 94.2236L88.3685 94.221ZM37.9539 103.174C37.4785 103.207 37.003 103.254 36.5276 103.272C34.4547 103.345 34.095 103.061 34.2912 100.965C34.4824 98.9428 34.8447 96.9303 35.2195 94.9304C35.4685 93.6072 36.3968 92.9155 37.6671 92.9029C38.7991 92.8928 39.2972 93.3205 39.7098 94.7719C40.2456 96.6687 40.7512 98.573 41.2594 100.477C41.7574 102.349 41.3172 102.963 39.3828 103.121C38.9073 103.161 38.4319 103.189 37.9564 103.222V103.174H37.9539ZM37.7527 82.6746L37.73 82.4809C35.1566 82.818 32.5781 83.1148 30.0148 83.5072C27.9067 83.8292 27.3734 84.3902 27.0011 86.4831C25.5949 94.4147 24.1837 102.344 22.8202 110.283C22.3699 112.907 22.0077 115.546 21.6907 118.189C21.414 120.504 21.9297 121.678 24.7396 121.387C26.5005 121.203 28.2866 121.208 30.06 121.183C32.319 121.153 32.807 120.836 33.28 118.62C33.6498 116.884 33.8686 115.118 34.2007 113.375C34.4397 112.119 34.6736 111.898 35.9389 111.785C37.8457 111.614 39.7551 111.458 41.6694 111.382C43.6315 111.304 44.2428 111.792 44.7812 113.621C45.2818 115.324 45.8327 117.012 46.2754 118.73C46.5395 119.764 47.2188 120.194 48.1596 120.323C48.6275 120.388 49.118 120.338 49.5909 120.292C51.6235 120.094 53.6586 119.885 55.6887 119.664C57.0446 119.518 57.8068 118.695 57.6961 117.337C57.6307 116.534 57.3666 115.737 57.1251 114.959C55.5 109.752 53.9253 104.525 52.1946 99.3503C50.6374 94.6915 48.9419 90.0754 47.2263 85.4694C46.4515 83.3865 44.5824 82.2444 42.4517 82.3526C40.882 82.4306 39.3173 82.5664 37.7501 82.6746H37.7527Z" fill="white"/>
<path d="M181.165 160.428C180.69 160.428 180.212 160.443 179.736 160.428C177.664 160.358 177.324 160.049 177.666 157.971C177.998 155.966 178.499 153.983 179.015 152.016C179.354 150.713 180.328 150.089 181.598 150.165C182.727 150.233 183.195 150.696 183.505 152.172C183.91 154.102 184.28 156.036 184.654 157.971C185.022 159.872 184.541 160.454 182.597 160.479C182.121 160.484 181.643 160.479 181.168 160.479V160.431L181.165 160.428ZM182.393 139.964L182.385 139.77C179.794 139.926 177.203 140.042 174.617 140.253C172.492 140.427 171.921 140.95 171.402 143.013C169.448 150.826 167.486 158.637 165.571 166.461C164.94 169.047 164.391 171.655 163.893 174.269C163.456 176.558 163.888 177.766 166.713 177.67C168.484 177.61 170.263 177.738 172.036 177.839C174.29 177.967 174.801 177.685 175.427 175.507C175.918 173.801 176.26 172.055 176.71 170.34C177.035 169.105 177.284 168.901 178.554 168.876C180.468 168.838 182.385 168.815 184.297 168.876C186.259 168.936 186.835 169.464 187.245 171.326C187.628 173.059 188.06 174.782 188.38 176.528C188.571 177.577 189.218 178.055 190.148 178.249C190.609 178.344 191.102 178.332 191.58 178.319C193.622 178.261 195.665 178.196 197.708 178.118C199.069 178.065 199.889 177.3 199.871 175.937C199.861 175.132 199.655 174.319 199.466 173.524C198.208 168.217 197.001 162.891 195.637 157.611C194.407 152.854 193.039 148.132 191.65 143.418C191.021 141.287 189.238 140.017 187.105 139.974C185.535 139.944 183.963 139.969 182.39 139.969L182.393 139.964ZM149.142 178.213C152.297 178.231 153.26 177.592 154.397 174.425C157.031 167.087 159.624 159.732 162.226 152.381C163.481 148.837 164.736 145.292 165.959 141.738C166.502 140.158 166.034 139.514 164.397 139.584C163.584 139.62 162.779 139.911 161.966 139.934C159.931 139.989 157.876 140.12 155.859 139.909C153.884 139.703 153.803 139.554 153.285 141.491C151.736 147.274 150.221 153.07 148.692 158.859C148.317 160.275 147.975 161.696 147.557 163.1C147.366 163.744 147.208 164.604 146.35 164.577C145.452 164.549 145.437 163.676 145.331 163.004C144.981 160.788 144.378 158.68 143.402 156.642C141.145 151.936 139.09 147.139 138.124 141.939C138.048 141.529 137.913 141.129 137.807 140.724C137.563 139.788 136.967 139.371 136.023 139.31C134.388 139.202 132.728 139.169 131.133 138.832C129.385 138.462 127.767 138.759 126.107 139.204C124.452 139.65 124.371 139.64 124.957 141.227C127.229 147.36 129.428 153.526 131.89 159.578C134.039 164.858 136.501 170.008 138.843 175.207C139.097 175.771 139.467 176.281 139.804 176.802C140.265 177.514 140.894 177.748 141.744 177.647C142.546 177.552 143.376 177.592 144.186 177.665C145.817 177.811 147.439 178.022 149.14 178.213H149.142ZM121.883 158.665H121.665C121.665 153 121.672 147.337 121.659 141.672C121.657 139.755 121.141 139.225 119.27 139.127C118.862 139.104 118.447 139.101 118.04 139.129C116.208 139.262 114.379 139.413 112.551 139.549C111.61 139.62 110.999 140.181 110.785 141.011C110.498 142.118 110.266 143.265 110.226 144.404C110.151 146.585 110.226 148.771 110.239 150.955C110.279 158.464 110.302 165.975 110.375 173.484C110.385 174.568 110.556 175.663 110.792 176.722C110.873 177.079 111.368 177.577 111.705 177.602C114.349 177.791 116.998 177.942 119.65 177.98C121.189 178.002 121.466 177.703 121.587 176.239C121.737 174.405 121.853 172.561 121.871 170.722C121.914 166.705 121.883 162.685 121.883 158.665ZM90.3205 178.213C93.475 178.231 94.4385 177.592 95.5755 174.425C98.2094 167.087 100.803 159.732 103.404 152.381C104.659 148.837 105.915 145.292 107.137 141.738C107.68 140.158 107.213 139.514 105.575 139.584C104.762 139.62 103.957 139.911 103.145 139.934C101.11 139.989 99.0546 140.12 97.0371 139.909C95.0624 139.703 94.9819 139.554 94.4637 141.491C92.9141 147.274 91.3997 153.07 89.8728 158.859C89.4979 160.275 89.1533 161.696 88.7382 163.1C88.547 163.744 88.3886 164.604 87.5308 164.577C86.6327 164.549 86.6176 163.676 86.5119 163.004C86.1623 160.788 85.5611 158.68 84.5825 156.642C82.326 151.936 80.2708 147.139 79.3048 141.939C79.2294 141.529 79.0935 141.129 78.9879 140.724C78.7439 139.788 78.1477 139.371 77.2043 139.31C75.5692 139.202 73.9089 139.169 72.3141 138.832C70.5657 138.462 68.9482 138.759 67.288 139.204C65.6327 139.65 65.5497 139.64 66.1383 141.227C68.4099 147.36 70.6085 153.526 73.0713 159.578C75.2196 164.858 77.6823 170.008 80.0243 175.207C80.2784 175.771 80.6482 176.281 80.9852 176.802C81.4456 177.514 82.0745 177.748 82.9247 177.647C83.7272 177.552 84.5574 177.592 85.3674 177.665C86.9975 177.811 88.62 178.022 90.3205 178.213Z" fill="#C92A4A"/>
</g>
<defs>
<clipPath id="clip0_4_499">
<rect width="200" height="178.295" fill="white"/>
</clipPath>
</defs>
</svg>
